<svg width="20" height="20" viewBox="0 0 20 20" fill="none" xmlns="http://www.w3.org/2000/svg">
<g clip-path="url(#clip0)">
<path d="M-9.46817e-08 17.8339C-4.2228e-08 19.0339 0.966065 20 2.16606 20L17.8339 20C19.0339 20 20 19.0339 20 17.8339L20 2.16606C20 0.966064 19.0339 -8.32e-07 17.8339 -7.79546e-07L2.16606 -9.46817e-08C0.966064 -4.2228e-08 -8.32e-07 0.966064 -7.79546e-07 2.16607L-9.46817e-08 17.8339ZM5.3204 9.44495C5.31953 9.26281 5.35198 9.02602 5.45577 8.87635C5.53229 8.76602 5.62085 8.62092 5.9657 8.61913C7.09391 8.6133 8.07667 8.62695 9.22834 8.61011C9.46806 8.58812 9.56751 8.43236 9.56679 8.2852C9.56606 8.13804 9.47407 7.96921 9.35018 7.84296C8.67893 7.15927 7.0645 6.37161 6.00632 5.88899C5.61142 5.70888 5.63676 5.41825 5.63628 5.09025C5.63466 3.99213 5.64855 3.54747 5.65433 2.51805C5.65534 2.32954 5.81458 2.16526 5.9296 2.11191C6.02893 2.06585 6.31666 2.03282 6.72383 2.28339C7.97643 3.05425 8.98513 3.76297 10.176 4.62094C10.2511 4.67506 10.3407 4.72648 10.4332 4.72473C10.5179 4.72312 10.602 4.67927 10.6634 4.62094C11.4681 3.85596 12.2779 3.05743 13.1634 2.27437C13.4243 2.04365 13.8267 2.18851 13.9395 2.2518C14.025 2.29975 14.2452 2.51634 14.2464 2.66245C14.2506 3.19459 14.2464 3.19594 14.2464 5.42419C14.2464 5.75417 14.15 5.88589 13.9666 6.06047C13.155 6.83304 13.253 6.73784 12.3466 7.58574C12.2288 7.69589 12.0808 7.91422 12.1751 8.12274C12.2551 8.29974 12.3732 8.62365 12.6986 8.62365C13.0457 8.62365 13.4915 8.62365 13.8357 8.62365C14.0423 8.62365 14.1968 8.94773 14.1968 9.1426C14.1968 9.60262 14.1968 9.96977 14.1968 10.6588C14.1968 11.3727 14.0246 11.9905 13.8583 12.333C13.1417 13.8087 12.1438 14.686 10.4829 15.6453C9.06459 16.4645 7.66826 17.1772 6.20487 17.8791C6.04138 17.9575 5.68141 18.0132 5.68141 17.4278C5.68141 16.8093 5.66788 16.2294 5.66788 15.2888C5.66788 15.0127 5.72347 14.841 5.80777 14.7247C5.89206 14.6085 6.00443 14.5513 6.11011 14.4946C8.28901 13.3244 8.42236 13.3218 9.50362 12.4865C9.60513 12.408 9.62049 12.295 9.62095 12.2112C9.62152 12.1077 9.6047 12.012 9.53972 11.9314C9.40329 11.7623 9.25716 11.7148 9.04784 11.7148C8.31435 11.7148 7.76635 11.7148 6.84567 11.7148C6.59317 11.7148 6.21885 11.8858 6.10109 12.0758C5.9878 12.2726 5.87556 12.5961 5.73557 12.5857C5.58245 12.5744 5.32492 12.2181 5.32492 11.5839C5.32492 10.8257 5.32434 10.2884 5.32041 9.44495L5.3204 9.44495Z" fill="black"/>
</g>
<defs>
<clipPath id="clip0">
<rect width="20" height="20" fill="white" transform="translate(0 20) rotate(-90)"/>
</clipPath>
</defs>
</svg>
