<svg width="30" height="30" viewBox="0 0 30 30" fill="none" xmlns="http://www.w3.org/2000/svg">
<g clip-path="url(#clip0)">
<path d="M3.24915 -1.4202e-07C1.44915 -1.4202e-07 -6.33421e-08 1.4491 -1.42022e-07 3.24909L-1.16932e-06 26.7508C-1.248e-06 28.5508 1.44915 30 3.24915 30L26.7509 30C28.5509 30 30 28.5509 30 26.7509L30 3.24909C30 1.4491 28.5509 -1.42023e-07 26.7509 -1.42023e-07L3.24915 -1.4202e-07ZM15.8326 7.9806C16.1058 7.9793 16.461 8.02797 16.6855 8.18366C16.851 8.29844 17.0686 8.43128 17.0713 8.94855C17.08 10.6409 17.0596 12.115 17.0848 13.8425C17.1178 14.2021 17.3515 14.3513 17.5722 14.3502C17.7929 14.3491 18.0462 14.2111 18.2356 14.0253C19.2611 13.0184 20.4426 10.5968 21.1665 9.00948C21.4367 8.41713 21.8726 8.45514 22.3646 8.45442C24.0118 8.45199 24.6788 8.47283 26.2229 8.4815C26.5057 8.48301 26.7521 8.72187 26.8321 8.8944C26.9012 9.0434 26.9508 9.47499 26.5749 10.0857C25.4186 11.9646 24.3555 13.4777 23.0686 15.264C22.9874 15.3767 22.9103 15.5111 22.9129 15.6498C22.9153 15.7769 22.9811 15.903 23.0686 15.9951C24.2161 17.2022 25.4139 18.4169 26.5884 19.7451C26.9345 20.1365 26.7172 20.7401 26.6223 20.9093C26.5504 21.0375 26.2255 21.3678 26.0063 21.3696C25.2081 21.3759 25.2061 21.3696 21.8637 21.3696C21.3687 21.3696 21.1712 21.225 20.9093 20.9499C19.7504 19.7325 19.8932 19.8795 18.6214 18.5199C18.4562 18.3432 18.1287 18.1212 17.8159 18.2627C17.5504 18.3827 17.0645 18.5598 17.0645 19.0479C17.0645 19.5686 17.0645 20.2373 17.0645 20.7536C17.0645 21.0635 16.5784 21.2952 16.2861 21.2952C15.5961 21.2952 15.0453 21.2952 14.0118 21.2952C12.9409 21.2952 12.0142 21.0369 11.5005 20.7875C9.28695 19.7126 7.971 18.2157 6.53205 15.7243C5.30325 13.5969 4.2342 11.5024 3.18135 9.30731C3.06375 9.06207 2.9802 8.52212 3.8583 8.52212C4.78605 8.52212 5.6559 8.50182 7.0668 8.50182C7.48095 8.50182 7.7385 8.58521 7.91295 8.71166C8.08725 8.83809 8.17305 9.00665 8.2581 9.16517C10.0134 12.4335 10.0173 12.6335 11.2702 14.2554C11.388 14.4077 11.5575 14.4307 11.6832 14.4314C11.8384 14.4323 11.982 14.4071 12.1029 14.3096C12.3565 14.1049 12.4278 13.8857 12.4278 13.5718C12.4278 12.4715 12.4278 11.6495 12.4278 10.2685C12.4278 9.88976 12.1713 9.32828 11.8863 9.15164C11.5911 8.9817 11.1058 8.81334 11.1214 8.60336C11.1384 8.37368 11.6728 7.98738 12.6241 7.98738C13.7614 7.98738 14.5674 7.98651 15.8326 7.98062L15.8326 7.9806Z" fill="black"/>
</g>
<defs>
<clipPath id="clip0">
<rect width="30" height="30" fill="white" transform="translate(30) rotate(90)"/>
</clipPath>
</defs>
</svg>
